<?xml version="1.0" encoding="UTF-8"?>
<svg xmlns="http://www.w3.org/2000/svg" xmlns:xlink="http://www.w3.org/1999/xlink" width="100px" height="75px" viewBox="0 0 100 75" version="1.1">
<defs>
<clipPath id="clip1">
  <path d="M 36.21875 23.832031 L 63.722656 23.832031 L 63.722656 48 L 36.21875 48 Z M 36.21875 23.832031 "/>
</clipPath>
<clipPath id="clip2">
  <path d="M 36.21875 41 L 63.722656 41 L 63.722656 43 L 36.21875 43 Z M 36.21875 41 "/>
</clipPath>
<clipPath id="clip3">
  <path d="M 44 50 L 58 50 L 58 51.109375 L 44 51.109375 Z M 44 50 "/>
</clipPath>
<clipPath id="clip4">
  <path d="M 55 8.300781 L 61 8.300781 L 61 16 L 55 16 Z M 55 8.300781 "/>
</clipPath>
<clipPath id="clip5">
  <path d="M 50 60 L 52 60 L 52 66.640625 L 50 66.640625 Z M 50 60 "/>
</clipPath>
</defs>
<g id="surface1">
<rect x="0" y="0" width="100" height="75" style="fill:rgb(56.078431%,67.058824%,60%);fill-opacity:1;stroke:none;"/>
<g clip-path="url(#clip1)" clip-rule="nonzero">
<path style=" stroke:none;fill-rule:nonzero;fill:rgb(82.352941%,46.27451%,21.960784%);fill-opacity:1;" d="M 36.304688 24.753906 C 36.542969 29.941406 36.542969 35.191406 36.542969 40.4375 C 36.542969 41.675781 36.070312 47.21875 38.25 47.335938 C 43.378906 47.6875 48.628906 47.394531 53.757812 47.394531 C 55.171875 47.394531 62.425781 48.277344 62.953125 46.332031 C 64.191406 42.027344 63.601562 36.839844 63.425781 32.417969 C 63.308594 29.941406 63.191406 27.40625 63.074219 24.929688 C 63.074219 24.402344 62.835938 24.28125 62.363281 24.164062 C 60.359375 23.574219 57.53125 24.105469 55.46875 24.046875 C 52.8125 23.988281 50.160156 23.988281 47.507812 23.929688 C 44.855469 23.988281 42.203125 23.929688 39.546875 23.929688 C 38.546875 23.929688 37.074219 23.515625 36.304688 24.402344 C 36.011719 24.695312 36.542969 25.226562 36.835938 24.871094 C 37.484375 24.164062 40.964844 24.636719 41.847656 24.695312 C 43.734375 24.695312 45.621094 24.753906 47.507812 24.753906 C 51.28125 24.8125 55.113281 24.871094 58.886719 24.929688 C 59.652344 24.929688 60.417969 24.929688 61.1875 24.992188 C 62.835938 24.992188 62.484375 27.289062 62.542969 28.234375 C 62.660156 30.0625 62.71875 31.828125 62.777344 33.65625 C 62.953125 37.3125 62.953125 41.027344 62.601562 44.683594 C 62.304688 47.867188 53.523438 46.804688 51.515625 46.804688 C 47.683594 46.804688 43.851562 46.804688 40.078125 46.804688 C 37.074219 46.804688 37.484375 44.035156 37.367188 41.734375 C 37.308594 39.847656 37.367188 37.960938 37.367188 36.074219 C 37.367188 32.359375 37.25 28.585938 37.132812 24.871094 C 37.074219 24.222656 36.304688 24.222656 36.304688 24.753906 Z M 36.304688 24.753906 "/>
</g>
<path style=" stroke:none;fill-rule:nonzero;fill:rgb(82.352941%,46.27451%,21.960784%);fill-opacity:1;" d="M 45.914062 29.351562 C 44.972656 30.179688 43.675781 30.589844 42.671875 31.300781 C 42.082031 31.710938 40.964844 32.535156 40.726562 33.304688 C 40.609375 33.835938 41.257812 34.128906 41.613281 34.363281 C 43.027344 35.25 44.265625 36.308594 45.386719 37.488281 C 45.738281 37.84375 46.210938 37.3125 45.914062 36.957031 C 45.207031 36.25 44.5 35.542969 43.734375 34.894531 C 43.441406 34.660156 41.496094 33.480469 41.789062 33.066406 C 43.085938 31.535156 45.03125 31.0625 46.503906 29.765625 C 46.800781 29.53125 46.269531 29 45.914062 29.351562 Z M 45.914062 29.351562 "/>
<path style=" stroke:none;fill-rule:nonzero;fill:rgb(82.352941%,46.27451%,21.960784%);fill-opacity:1;" d="M 51.8125 27.289062 C 50.21875 31.535156 48.746094 35.839844 47.332031 40.203125 C 47.152344 40.671875 47.921875 40.851562 48.039062 40.378906 C 49.453125 36.074219 50.925781 31.769531 52.519531 27.464844 C 52.695312 27.054688 51.988281 26.816406 51.8125 27.289062 Z M 51.8125 27.289062 "/>
<path style=" stroke:none;fill-rule:nonzero;fill:rgb(82.352941%,46.27451%,21.960784%);fill-opacity:1;" d="M 53.050781 30.179688 C 53.933594 30.828125 54.757812 31.535156 55.644531 32.183594 C 56.175781 32.597656 56.707031 33.007812 57.175781 33.421875 C 57.941406 34.011719 57.589844 33.953125 56.941406 34.421875 C 55.527344 35.425781 54.40625 36.722656 53.402344 38.136719 C 53.109375 38.550781 53.757812 38.90625 54.050781 38.492188 C 54.878906 37.3125 55.878906 36.25 57 35.308594 C 57.234375 35.132812 58.59375 34.421875 58.59375 33.894531 C 58.59375 33.183594 57.707031 32.773438 57.234375 32.417969 C 55.996094 31.476562 54.820312 30.53125 53.582031 29.589844 C 53.167969 29.351562 52.636719 29.882812 53.050781 30.179688 Z M 53.050781 30.179688 "/>
<g clip-path="url(#clip2)" clip-rule="nonzero">
<path style=" stroke:none;fill-rule:nonzero;fill:rgb(82.352941%,46.27451%,21.960784%);fill-opacity:1;" d="M 37.132812 42.148438 C 45.855469 42.324219 54.523438 42.265625 63.25 41.96875 C 63.722656 41.96875 63.722656 41.203125 63.25 41.203125 C 54.523438 41.558594 45.855469 41.617188 37.132812 41.378906 C 36.660156 41.378906 36.660156 42.148438 37.132812 42.148438 Z M 37.132812 42.148438 "/>
</g>
<path style=" stroke:none;fill-rule:nonzero;fill:rgb(82.352941%,46.27451%,21.960784%);fill-opacity:1;" d="M 48.214844 44.917969 C 48.863281 44.917969 49.511719 44.917969 50.160156 44.917969 C 50.632812 44.917969 50.632812 44.152344 50.160156 44.152344 C 49.511719 44.152344 48.863281 44.152344 48.214844 44.152344 C 47.742188 44.210938 47.742188 44.917969 48.214844 44.917969 Z M 48.214844 44.917969 "/>
<path style=" stroke:none;fill-rule:nonzero;fill:rgb(82.352941%,46.27451%,21.960784%);fill-opacity:1;" d="M 49.808594 47.097656 C 49.628906 48.160156 49.570312 49.222656 49.6875 50.34375 C 49.75 50.8125 50.457031 50.8125 50.457031 50.34375 C 50.335938 49.339844 50.335938 48.335938 50.515625 47.335938 C 50.632812 46.804688 49.925781 46.628906 49.808594 47.097656 Z M 49.808594 47.097656 "/>
<g clip-path="url(#clip3)" clip-rule="nonzero">
<path style=" stroke:none;fill-rule:nonzero;fill:rgb(82.352941%,46.27451%,21.960784%);fill-opacity:1;" d="M 44.679688 51.109375 C 48.746094 51.109375 52.8125 51.109375 56.824219 51.109375 C 57.292969 51.109375 57.292969 50.34375 56.824219 50.34375 C 52.753906 50.34375 48.6875 50.34375 44.679688 50.34375 C 44.207031 50.34375 44.207031 51.109375 44.679688 51.109375 Z M 44.679688 51.109375 "/>
</g>
<path style=" stroke:none;fill-rule:nonzero;fill:rgb(40%,46.666667%,48.627451%);fill-opacity:1;" d="M 26.808594 31.234375 L 22.628906 29.613281 L 22.835938 29.078125 L 23.429688 29.21875 L 23.453125 29.164062 C 23.121094 28.707031 23.066406 28.203125 23.277344 27.652344 C 23.488281 27.109375 23.847656 26.835938 24.359375 26.824219 L 24.378906 26.777344 C 24.222656 26.554688 24.132812 26.304688 24.105469 26.03125 C 24.082031 25.753906 24.121094 25.484375 24.222656 25.226562 C 24.539062 24.40625 25.121094 24.15625 25.964844 24.484375 L 28.976562 25.65625 L 28.703125 26.355469 L 25.820312 25.234375 C 25.515625 25.117188 25.28125 25.101562 25.109375 25.1875 C 24.941406 25.273438 24.808594 25.433594 24.71875 25.667969 C 24.609375 25.949219 24.628906 26.226562 24.777344 26.503906 C 24.925781 26.78125 25.183594 26.992188 25.554688 27.136719 L 28.027344 28.097656 L 27.757812 28.796875 L 24.871094 27.675781 C 24.570312 27.558594 24.332031 27.539062 24.164062 27.621094 C 23.996094 27.703125 23.867188 27.859375 23.777344 28.089844 C 23.707031 28.273438 23.691406 28.457031 23.726562 28.648438 C 23.765625 28.839844 23.863281 29.019531 24.011719 29.183594 C 24.160156 29.347656 24.359375 29.480469 24.609375 29.574219 L 27.082031 30.535156 Z M 26.808594 31.234375 "/>
<path style=" stroke:none;fill-rule:nonzero;fill:rgb(40%,46.666667%,48.627451%);fill-opacity:1;" d="M 35.429688 18.675781 C 34.886719 19.101562 34.363281 19.269531 33.851562 19.183594 C 33.34375 19.09375 32.84375 18.738281 32.351562 18.113281 C 31.859375 17.488281 31.628906 16.917969 31.664062 16.402344 C 31.699219 15.886719 31.988281 15.414062 32.53125 14.988281 C 33.070312 14.5625 33.59375 14.394531 34.105469 14.480469 C 34.613281 14.570312 35.113281 14.925781 35.605469 15.550781 C 36.097656 16.175781 36.328125 16.746094 36.292969 17.261719 C 36.257812 17.777344 35.96875 18.25 35.429688 18.675781 Z M 35.042969 18.183594 C 35.402344 17.902344 35.578125 17.597656 35.578125 17.261719 C 35.574219 16.929688 35.386719 16.527344 35.019531 16.058594 L 34.976562 16.003906 C 34.605469 15.535156 34.261719 15.257812 33.9375 15.179688 C 33.613281 15.097656 33.273438 15.195312 32.914062 15.476562 C 32.554688 15.757812 32.378906 16.066406 32.382812 16.402344 C 32.386719 16.734375 32.570312 17.136719 32.941406 17.605469 L 32.980469 17.660156 C 33.351562 18.128906 33.699219 18.402344 34.023438 18.484375 C 34.34375 18.566406 34.6875 18.464844 35.042969 18.183594 Z M 35.042969 18.183594 "/>
<path style=" stroke:none;fill-rule:nonzero;fill:rgb(40%,46.666667%,48.627451%);fill-opacity:1;" d="M 44.039062 14.332031 L 43.15625 9.933594 L 43.71875 9.824219 L 43.921875 10.398438 L 43.980469 10.386719 C 44.210938 9.859375 44.65625 9.53125 45.320312 9.398438 C 45.761719 9.308594 46.125 9.359375 46.40625 9.550781 C 46.691406 9.738281 46.886719 10.097656 46.988281 10.621094 L 47.589844 13.621094 L 46.855469 13.769531 L 46.265625 10.816406 C 46.195312 10.464844 46.066406 10.238281 45.882812 10.132812 C 45.699219 10.027344 45.460938 10.003906 45.167969 10.0625 C 44.953125 10.105469 44.769531 10.195312 44.609375 10.335938 C 44.453125 10.472656 44.339844 10.652344 44.273438 10.867188 C 44.207031 11.085938 44.199219 11.324219 44.253906 11.585938 L 44.773438 14.183594 Z M 44.039062 14.332031 "/>
<g clip-path="url(#clip4)" clip-rule="nonzero">
<path style=" stroke:none;fill-rule:nonzero;fill:rgb(40%,46.666667%,48.627451%);fill-opacity:1;" d="M 55.445312 14.222656 L 57.160156 8.300781 L 57.878906 8.507812 L 56.800781 12.234375 L 59.238281 10.652344 L 60.132812 10.910156 L 58.160156 12.175781 L 58.964844 15.242188 L 58.132812 15 L 57.558594 12.558594 L 56.554688 13.078125 L 56.164062 14.429688 Z M 55.445312 14.222656 "/>
</g>
<path style=" stroke:none;fill-rule:nonzero;fill:rgb(40%,46.666667%,48.627451%);fill-opacity:1;" d="M 66.589844 20.460938 C 66.0625 19.96875 65.800781 19.464844 65.800781 18.945312 C 65.804688 18.425781 66.078125 17.871094 66.625 17.285156 C 67.171875 16.699219 67.703125 16.386719 68.222656 16.347656 C 68.738281 16.3125 69.261719 16.539062 69.789062 17.03125 C 70.261719 17.472656 70.5 17.929688 70.5 18.402344 C 70.5 18.871094 70.242188 19.382812 69.722656 19.941406 L 69.464844 20.214844 L 67.054688 17.964844 C 66.71875 18.363281 66.550781 18.726562 66.539062 19.054688 C 66.53125 19.386719 66.691406 19.703125 67.015625 20.003906 C 67.277344 20.25 67.546875 20.386719 67.820312 20.417969 C 68.09375 20.449219 68.347656 20.339844 68.578125 20.089844 L 69.117188 20.589844 C 68.761719 20.972656 68.355469 21.140625 67.898438 21.101562 C 67.441406 21.0625 67.003906 20.847656 66.589844 20.460938 Z M 67.488281 17.519531 L 69.316406 19.226562 C 69.910156 18.589844 69.925781 18.011719 69.363281 17.484375 C 69.054688 17.195312 68.75 17.054688 68.453125 17.058594 C 68.160156 17.0625 67.835938 17.214844 67.488281 17.519531 Z M 67.488281 17.519531 "/>
<path style=" stroke:none;fill-rule:nonzero;fill:rgb(40%,46.666667%,48.627451%);fill-opacity:1;" d="M 70.777344 29.148438 C 70.695312 28.914062 70.648438 28.71875 70.644531 28.566406 L 71.101562 28.402344 L 71.199219 28.683594 C 71.394531 29.230469 71.835938 29.476562 72.523438 29.425781 L 76.167969 26.289062 L 76.433594 27.035156 L 74.601562 28.578125 C 74.339844 28.796875 73.953125 29.105469 73.441406 29.503906 L 73.453125 29.546875 C 74.054688 29.507812 74.542969 29.480469 74.917969 29.46875 L 77.273438 29.390625 L 77.523438 30.097656 L 73.019531 30.132812 C 72.417969 30.136719 71.929688 30.074219 71.550781 29.9375 C 71.175781 29.804688 70.917969 29.542969 70.777344 29.148438 Z M 70.777344 29.148438 "/>
<path style=" stroke:none;fill-rule:nonzero;fill:rgb(60%,41.568627%,20.392157%);fill-opacity:1;" d="M 22.890625 47.515625 C 22.695312 46.953125 22.734375 46.449219 23.007812 46.011719 C 23.28125 45.574219 23.816406 45.21875 24.613281 44.941406 C 25.394531 44.667969 26.03125 44.617188 26.527344 44.785156 C 27.019531 44.953125 27.355469 45.300781 27.539062 45.828125 C 27.648438 46.144531 27.695312 46.429688 27.675781 46.683594 C 27.65625 46.9375 27.5625 47.175781 27.398438 47.398438 L 27.417969 47.449219 L 29.597656 46.691406 L 29.855469 47.4375 L 23.71875 49.570312 L 23.527344 49.011719 L 24.097656 48.707031 L 24.078125 48.65625 C 23.796875 48.589844 23.550781 48.457031 23.351562 48.257812 C 23.148438 48.058594 22.996094 47.8125 22.890625 47.515625 Z M 23.578125 47.488281 C 23.71875 47.890625 23.960938 48.136719 24.308594 48.222656 C 24.65625 48.304688 25.105469 48.25 25.660156 48.058594 L 25.691406 48.046875 C 26.257812 47.851562 26.652344 47.609375 26.878906 47.320312 C 27.101562 47.035156 27.144531 46.695312 27.007812 46.296875 C 26.910156 46.015625 26.773438 45.804688 26.601562 45.671875 C 26.433594 45.539062 26.210938 45.472656 25.933594 45.480469 C 25.660156 45.488281 25.308594 45.566406 24.882812 45.710938 L 24.847656 45.722656 C 24.429688 45.871094 24.113281 46.023438 23.898438 46.191406 C 23.679688 46.351562 23.546875 46.539062 23.5 46.746094 C 23.453125 46.953125 23.476562 47.199219 23.578125 47.488281 Z M 23.578125 47.488281 "/>
<path style=" stroke:none;fill-rule:nonzero;fill:rgb(60%,41.568627%,20.392157%);fill-opacity:1;" d="M 27.742188 56.132812 C 27.269531 55.535156 27.074219 54.964844 27.160156 54.425781 C 27.246094 53.886719 27.621094 53.355469 28.28125 52.828125 C 28.945312 52.304688 29.546875 52.066406 30.09375 52.105469 C 30.636719 52.148438 31.148438 52.46875 31.617188 53.066406 C 32.042969 53.601562 32.21875 54.113281 32.144531 54.605469 C 32.070312 55.09375 31.71875 55.589844 31.085938 56.085938 L 30.777344 56.332031 L 28.621094 53.605469 C 28.210938 53.964844 27.976562 54.316406 27.914062 54.660156 C 27.851562 55.003906 27.96875 55.359375 28.257812 55.722656 C 28.492188 56.019531 28.75 56.207031 29.03125 56.28125 C 29.3125 56.355469 29.59375 56.28125 29.875 56.058594 L 30.355469 56.667969 C 29.921875 57.007812 29.472656 57.121094 29.003906 57.007812 C 28.535156 56.894531 28.113281 56.601562 27.742188 56.132812 Z M 29.144531 53.210938 L 30.777344 55.277344 C 31.496094 54.707031 31.605469 54.105469 31.105469 53.472656 C 30.824219 53.121094 30.53125 52.921875 30.226562 52.878906 C 29.917969 52.839844 29.554688 52.949219 29.144531 53.210938 Z M 29.144531 53.210938 "/>
<path style=" stroke:none;fill-rule:nonzero;fill:rgb(60%,41.568627%,20.392157%);fill-opacity:1;" d="M 34.273438 61.871094 L 35.371094 56.957031 L 36.074219 57.410156 L 35.5 59.847656 C 35.417969 60.195312 35.28125 60.695312 35.089844 61.347656 L 35.128906 61.371094 C 35.609375 60.945312 36.003906 60.613281 36.316406 60.371094 L 38.289062 58.832031 L 38.953125 59.257812 L 34.9375 62.296875 Z M 34.273438 61.871094 "/>
<path style=" stroke:none;fill-rule:nonzero;fill:rgb(60%,41.568627%,20.392157%);fill-opacity:1;" d="M 43.070312 65.828125 C 42.335938 65.636719 41.839844 65.296875 41.582031 64.8125 C 41.328125 64.332031 41.308594 63.679688 41.523438 62.863281 C 41.738281 62.046875 42.078125 61.492188 42.539062 61.199219 C 43 60.90625 43.597656 60.855469 44.335938 61.050781 C 44.996094 61.226562 45.441406 61.53125 45.675781 61.96875 C 45.910156 62.40625 45.925781 63.011719 45.722656 63.789062 L 45.621094 64.171875 L 42.257812 63.28125 C 42.148438 63.816406 42.171875 64.238281 42.328125 64.550781 C 42.484375 64.859375 42.785156 65.074219 43.238281 65.195312 C 43.601562 65.292969 43.921875 65.285156 44.191406 65.175781 C 44.460938 65.070312 44.640625 64.84375 44.734375 64.496094 L 45.480469 64.691406 C 45.339844 65.226562 45.046875 65.585938 44.605469 65.777344 C 44.160156 65.964844 43.648438 65.984375 43.070312 65.828125 Z M 42.441406 62.652344 L 44.988281 63.324219 C 45.222656 62.4375 44.949219 61.894531 44.167969 61.6875 C 43.734375 61.570312 43.378906 61.589844 43.109375 61.738281 C 42.835938 61.890625 42.613281 62.195312 42.441406 62.652344 Z M 42.441406 62.652344 "/>
<g clip-path="url(#clip5)" clip-rule="nonzero">
<path style=" stroke:none;fill-rule:nonzero;fill:rgb(60%,41.568627%,20.392157%);fill-opacity:1;" d="M 50.339844 66.640625 L 50.300781 60.144531 L 51.09375 60.140625 L 51.128906 66.636719 Z M 50.339844 66.640625 "/>
</g>
<path style=" stroke:none;fill-rule:nonzero;fill:rgb(60%,41.568627%,20.392157%);fill-opacity:1;" d="M 58.496094 65.371094 C 57.800781 65.578125 57.222656 65.539062 56.753906 65.257812 C 56.289062 64.972656 55.933594 64.433594 55.695312 63.628906 C 55.453125 62.824219 55.453125 62.175781 55.6875 61.683594 C 55.921875 61.191406 56.386719 60.84375 57.082031 60.636719 C 57.773438 60.425781 58.355469 60.464844 58.820312 60.746094 C 59.285156 61.03125 59.640625 61.574219 59.878906 62.378906 C 60.121094 63.179688 60.121094 63.828125 59.886719 64.320312 C 59.65625 64.8125 59.191406 65.164062 58.496094 65.371094 Z M 58.308594 64.742188 C 58.765625 64.605469 59.058594 64.371094 59.1875 64.042969 C 59.3125 63.714844 59.285156 63.25 59.105469 62.644531 L 59.085938 62.578125 C 58.90625 61.972656 58.671875 61.570312 58.386719 61.367188 C 58.097656 61.160156 57.726562 61.128906 57.269531 61.265625 C 56.808594 61.402344 56.515625 61.636719 56.386719 61.964844 C 56.261719 62.292969 56.289062 62.757812 56.46875 63.359375 L 56.488281 63.429688 C 56.667969 64.03125 56.902344 64.433594 57.1875 64.640625 C 57.476562 64.84375 57.847656 64.878906 58.308594 64.742188 Z M 58.308594 64.742188 "/>
<path style=" stroke:none;fill-rule:nonzero;fill:rgb(60%,41.568627%,20.392157%);fill-opacity:1;" d="M 66.222656 63.40625 L 62.597656 58.28125 L 63.082031 57.9375 L 63.53125 58.402344 L 63.574219 58.371094 C 63.558594 58.082031 63.617188 57.8125 63.753906 57.558594 C 63.890625 57.308594 64.082031 57.09375 64.335938 56.917969 C 64.828125 56.570312 65.320312 56.46875 65.816406 56.609375 C 66.3125 56.75 66.804688 57.164062 67.292969 57.855469 C 67.769531 58.527344 67.996094 59.125 67.96875 59.644531 C 67.945312 60.167969 67.707031 60.585938 67.25 60.910156 C 66.976562 61.101562 66.714844 61.226562 66.464844 61.277344 C 66.214844 61.328125 65.960938 61.304688 65.703125 61.210938 L 65.660156 61.242188 L 66.867188 62.949219 Z M 66.652344 60.527344 C 66.902344 60.351562 67.066406 60.164062 67.148438 59.96875 C 67.230469 59.773438 67.230469 59.546875 67.148438 59.285156 C 67.070312 59.027344 66.898438 58.714844 66.644531 58.355469 L 66.625 58.324219 C 66.363281 57.957031 66.125 57.691406 65.902344 57.523438 C 65.683594 57.359375 65.464844 57.28125 65.246094 57.292969 C 65.03125 57.300781 64.800781 57.394531 64.554688 57.566406 C 64.214844 57.808594 64.050781 58.109375 64.066406 58.472656 C 64.078125 58.839844 64.261719 59.265625 64.605469 59.753906 L 64.625 59.78125 C 64.964844 60.261719 65.300781 60.566406 65.632812 60.699219 C 65.964844 60.832031 66.304688 60.773438 66.652344 60.527344 Z M 66.652344 60.527344 "/>
<path style=" stroke:none;fill-rule:nonzero;fill:rgb(60%,41.568627%,20.392157%);fill-opacity:1;" d="M 73.605469 54.257812 C 73.164062 54.878906 72.671875 55.222656 72.128906 55.292969 C 71.585938 55.359375 70.972656 55.148438 70.285156 54.660156 C 69.597656 54.167969 69.195312 53.65625 69.085938 53.121094 C 68.972656 52.585938 69.140625 52.007812 69.582031 51.390625 C 69.976562 50.832031 70.421875 50.523438 70.914062 50.457031 C 71.40625 50.390625 71.976562 50.59375 72.632812 51.058594 L 72.953125 51.289062 L 70.933594 54.117188 C 71.394531 54.410156 71.796875 54.539062 72.144531 54.503906 C 72.492188 54.464844 72.800781 54.257812 73.070312 53.878906 C 73.289062 53.570312 73.398438 53.269531 73.390625 52.980469 C 73.386719 52.6875 73.234375 52.441406 72.941406 52.230469 L 73.390625 51.601562 C 73.839844 51.921875 74.074219 52.320312 74.097656 52.804688 C 74.117188 53.285156 73.953125 53.773438 73.605469 54.257812 Z M 70.410156 53.722656 L 71.9375 51.582031 C 71.191406 51.050781 70.585938 51.113281 70.117188 51.769531 C 69.855469 52.136719 69.746094 52.472656 69.789062 52.78125 C 69.835938 53.085938 70.042969 53.402344 70.410156 53.722656 Z M 70.410156 53.722656 "/>
<path style=" stroke:none;fill-rule:nonzero;fill:rgb(60%,41.568627%,20.392157%);fill-opacity:1;" d="M 76.9375 47.679688 L 72.464844 46.160156 L 72.65625 45.589844 L 73.355469 45.730469 L 73.375 45.679688 C 73.179688 45.519531 73.039062 45.332031 72.953125 45.109375 C 72.859375 44.890625 72.863281 44.640625 72.957031 44.363281 C 73.011719 44.210938 73.078125 44.082031 73.160156 43.988281 L 73.886719 44.234375 L 73.777344 44.546875 C 73.671875 44.863281 73.671875 45.15625 73.785156 45.425781 C 73.902344 45.695312 74.15625 45.898438 74.546875 46.03125 L 77.191406 46.929688 Z M 76.9375 47.679688 "/>
<path style=" stroke:none;fill-rule:nonzero;fill:rgb(40%,46.666667%,48.627451%);fill-opacity:1;" d="M 21.296875 37.800781 C 21.296875 36.5 22.351562 35.445312 23.648438 35.445312 C 24.949219 35.445312 26.003906 36.5 26.003906 37.800781 C 26.003906 39.101562 24.949219 40.15625 23.648438 40.15625 C 22.351562 40.15625 21.296875 39.101562 21.296875 37.800781 Z M 21.296875 37.800781 "/>
<path style=" stroke:none;fill-rule:nonzero;fill:rgb(40%,46.666667%,48.627451%);fill-opacity:1;" d="M 73.9375 37.800781 C 73.9375 36.5 74.992188 35.445312 76.292969 35.445312 C 77.59375 35.445312 78.644531 36.5 78.644531 37.800781 C 78.644531 39.101562 77.589844 40.15625 76.292969 40.15625 C 74.992188 40.15625 73.9375 39.101562 73.9375 37.800781 Z M 73.9375 37.800781 "/>
</g>
</svg>
